<?xml version="1.0" standalone="no"?>
<!DOCTYPE svg PUBLIC "-//W3C//DTD SVG 20010904//EN"
 "http://www.w3.org/TR/2001/REC-SVG-20010904/DTD/svg10.dtd">
<svg version="1.0" xmlns="http://www.w3.org/2000/svg"
 width="250.000000pt" height="250.000000pt" viewBox="0 0 250.000000 250.000000"
 preserveAspectRatio="xMidYMid meet">
<metadata>
Created by potrace 1.14, written by Peter Selinger 2001-2017
</metadata>
<g transform="translate(0.000000,250.000000) scale(0.100000,-0.100000)"
fill="#000000" stroke="none">
<path d="M2094 2280 c5 -55 20 -122 39 -176 l15 -40 -122 61 c-100 51 -214 94
-343 130 -43 12 -111 24 -193 34 -70 9 -389 6 -455 -4 -144 -22 -335 -83 -475
-152 -58 -28 -106 -50 -107 -49 -1 1 2 18 7 37 16 57 27 149 19 149 -14 0
-101 -140 -130 -208 -15 -37 -32 -95 -39 -129 -15 -85 -19 -184 -8 -176 6 3
26 39 45 79 19 41 36 74 38 74 11 0 -11 -71 -35 -114 -16 -28 -40 -91 -52
-139 l-24 -87 1 188 c0 103 -4 205 -9 227 l-9 40 -13 -32 c-47 -112 -30 -403
25 -438 10 -6 59 55 92 115 9 16 19 27 23 23 14 -14 5 -56 -19 -87 -54 -71
-82 -169 -84 -295 -1 -71 -10 -45 -27 84 -17 119 -75 315 -95 315 -14 0 -10
-179 6 -248 25 -105 88 -218 117 -207 18 7 72 123 99 213 l22 74 27 -109 c65
-249 187 -517 345 -753 46 -69 89 -145 96 -170 18 -63 98 -140 175 -169 54
-20 113 -57 103 -64 -2 -2 -24 -15 -49 -29 -25 -15 -61 -42 -79 -62 -38 -40
-38 -40 44 -37 42 1 120 26 145 46 27 21 129 11 192 -19 47 -22 68 -26 119
-24 l62 3 -43 42 c-24 22 -60 49 -81 60 -21 10 -39 20 -39 23 1 3 12 13 26 23
l25 19 38 -41 c57 -61 119 -85 211 -84 41 0 88 6 105 12 l30 12 -45 28 c-65
39 -122 60 -187 67 -32 3 -67 8 -78 9 -11 2 -29 4 -40 5 -12 0 4 12 41 29 76
35 126 86 153 157 12 31 34 73 49 93 172 223 372 666 417 925 3 21 8 36 11 34
2 -3 11 -31 19 -62 18 -70 51 -148 83 -199 22 -37 24 -38 42 -22 27 24 75 122
93 190 23 84 28 308 7 275 -38 -59 -80 -221 -106 -410 -8 -60 -14 -63 -15 -9
-2 128 -32 238 -83 305 -26 34 -32 49 -28 76 4 29 6 31 16 14 34 -59 94 -141
102 -140 5 1 20 28 33 60 37 92 37 240 -1 384 l-12 44 -13 -49 c-9 -35 -12
-108 -10 -238 1 -104 2 -185 1 -180 -23 95 -61 205 -83 238 -16 24 -32 62 -35
86 -6 41 -3 37 40 -48 26 -51 50 -90 54 -88 7 4 5 40 -5 135 -13 112 -88 281
-165 371 l-20 24 4 -45z"/>
<path d="M2155 1338 c7 -102 13 -138 31 -212 20 -77 44 -136 56 -136 5 0 6 -5
2 -11 -12 -21 35 11 71 47 57 56 117 166 131 239 2 11 6 31 9 45 11 56 14 110
6 110 -10 0 -70 -88 -100 -149 -12 -23 -40 -93 -63 -154 -22 -62 -42 -113 -43
-115 -2 -2 -1 41 2 96 7 118 -6 186 -50 259 -49 82 -60 78 -52 -19z"/>
<path d="M115 1380 c2 -14 6 -47 10 -75 19 -137 99 -283 186 -339 l26 -17 20
48 c18 43 29 76 34 108 1 6 5 20 10 32 8 21 18 108 24 208 3 55 -9 55 -46 -1
-44 -65 -59 -133 -56 -257 2 -61 0 -102 -4 -91 -5 10 -25 64 -45 119 -40 112
-88 202 -133 255 -28 33 -30 34 -26 10z"/>
<path d="M2110 1150 c-1 -8 -4 -24 -6 -35 -13 -59 -7 -296 10 -380 3 -11 5
-23 5 -27 2 -15 41 -8 87 14 58 27 131 98 166 160 44 79 87 208 70 208 -21 0
-125 -114 -183 -201 -75 -111 -136 -192 -124 -164 51 126 65 227 41 307 -17
58 -65 142 -66 118z"/>
<path d="M440 1099 c-27 -45 -50 -123 -50 -173 0 -51 25 -157 46 -198 30 -58
-4 -17 -87 104 -93 136 -202 253 -207 223 -5 -23 33 -127 69 -191 32 -57 114
-139 156 -155 73 -29 83 -29 93 -4 25 66 29 399 5 423 -2 3 -13 -11 -25 -29z"/>
<path d="M1997 843 c-28 -85 -62 -227 -72 -304 -6 -45 -5 -47 23 -57 81 -28
216 17 301 100 47 46 114 143 109 158 -6 16 -131 -50 -274 -145 -78 -52 -146
-95 -150 -95 -4 0 5 12 20 26 110 110 149 288 83 378 -12 17 -16 10 -40 -61z"/>
<path d="M526 860 c-27 -69 -23 -148 13 -222 16 -35 38 -72 48 -83 10 -12 27
-31 38 -44 l20 -23 -37 20 c-20 12 -84 53 -142 92 -108 72 -232 137 -243 126
-3 -3 10 -30 29 -59 84 -126 196 -200 303 -201 92 -1 98 4 92 67 -9 77 -14
101 -48 225 -18 61 -37 119 -44 128 -10 15 -14 11 -29 -26z"/>
<path d="M1837 683 c-71 -108 -148 -275 -133 -291 16 -16 150 109 181 168 26
51 30 190 5 190 -4 0 -28 -30 -53 -67z"/>
<path d="M675 719 c-13 -39 -6 -119 13 -163 22 -48 89 -121 140 -151 17 -11
32 -23 32 -28 0 -4 -4 -6 -9 -3 -4 3 -23 7 -42 10 -19 2 -54 9 -79 14 -104 23
-214 30 -285 16 l-37 -7 28 -24 c16 -13 58 -39 94 -56 57 -28 75 -32 145 -32
70 0 87 4 132 29 29 16 55 37 59 48 11 37 -52 183 -129 296 -27 39 -51 72 -53
72 -1 0 -6 -9 -9 -21z"/>
<path d="M1835 405 c-60 -13 -112 -23 -115 -23 -2 0 -6 -5 -8 -10 -9 -27 141
-85 196 -76 82 13 100 18 146 41 28 14 66 37 85 51 29 23 31 27 15 33 -39 16
-209 7 -319 -16z"/>
<path d="M968 314 c-2 -1 -23 -4 -48 -8 -48 -6 -190 -71 -190 -86 0 -14 68
-30 125 -30 28 0 72 8 99 17 48 18 136 85 136 104 0 8 -114 11 -122 3z"/>
</g>
</svg>
